<svg width="20" height="20" viewBox="0 0 20 20" fill="none" xmlns="http://www.w3.org/2000/svg">
<path fill-rule="evenodd" clip-rule="evenodd" d="M7.27649 2.79985C7.43482 2.60985 7.66936 2.5 7.91668 2.5H12.0833C12.3307 2.5 12.5652 2.60985 12.7235 2.79985L14.557 5H16.6667C17.3297 5 17.9656 5.26339 18.4344 5.73223C18.9033 6.20107 19.1667 6.83696 19.1667 7.5V15C19.1667 15.663 18.9033 16.2989 18.4344 16.7678C17.9656 17.2366 17.3297 17.5 16.6667 17.5H3.33334C2.6703 17.5 2.03442 17.2366 1.56558 16.7678C1.09674 16.2989 0.833344 15.663 0.833344 15V7.5C0.833344 6.83696 1.09674 6.20107 1.56558 5.73223C2.03442 5.26339 2.6703 5 3.33334 5H5.44303L7.27649 2.79985ZM8.30699 4.16667L6.47353 6.36682C6.3152 6.55681 6.08066 6.66667 5.83334 6.66667H3.33334C3.11233 6.66667 2.90037 6.75446 2.74409 6.91074C2.58781 7.06702 2.50001 7.27899 2.50001 7.5V15C2.50001 15.221 2.58781 15.433 2.74409 15.5893C2.90037 15.7455 3.11233 15.8333 3.33334 15.8333H16.6667C16.8877 15.8333 17.0997 15.7455 17.2559 15.5893C17.4122 15.433 17.5 15.221 17.5 15V7.5C17.5 7.27899 17.4122 7.06702 17.2559 6.91074C17.0997 6.75446 16.8877 6.66667 16.6667 6.66667H14.1667C13.9194 6.66667 13.6848 6.55681 13.5265 6.36682L11.693 4.16667H8.30699Z" fill="#3F3F46"/>
<path fill-rule="evenodd" clip-rule="evenodd" d="M9.99999 9.16667C9.07952 9.16667 8.33332 9.91286 8.33332 10.8333C8.33332 11.7538 9.07952 12.5 9.99999 12.5C10.9205 12.5 11.6667 11.7538 11.6667 10.8333C11.6667 9.91286 10.9205 9.16667 9.99999 9.16667ZM6.66666 10.8333C6.66666 8.99238 8.15904 7.5 9.99999 7.5C11.8409 7.5 13.3333 8.99238 13.3333 10.8333C13.3333 12.6743 11.8409 14.1667 9.99999 14.1667C8.15904 14.1667 6.66666 12.6743 6.66666 10.8333Z" fill="#3F3F46"/>
</svg>
