<svg width="16" height="16" viewBox="0 0 16 16" fill="none" xmlns="http://www.w3.org/2000/svg">
<path fill-rule="evenodd" clip-rule="evenodd" d="M8.00008 2.00033C4.68637 2.00033 2.00008 4.68662 2.00008 8.00033C2.00008 11.314 4.68637 14.0003 8.00008 14.0003C11.3138 14.0003 14.0001 11.314 14.0001 8.00033C14.0001 4.68662 11.3138 2.00033 8.00008 2.00033ZM0.666748 8.00033C0.666748 3.95024 3.94999 0.666992 8.00008 0.666992C12.0502 0.666992 15.3334 3.95024 15.3334 8.00033C15.3334 12.0504 12.0502 15.3337 8.00008 15.3337C3.94999 15.3337 0.666748 12.0504 0.666748 8.00033Z" fill="#18181B"/>
<path fill-rule="evenodd" clip-rule="evenodd" d="M4.86201 6.19526C5.12236 5.93491 5.54447 5.93491 5.80482 6.19526L8.00008 8.39052L10.1953 6.19526C10.4557 5.93491 10.8778 5.93491 11.1382 6.19526C11.3985 6.45561 11.3985 6.87772 11.1382 7.13807L8.47149 9.80474C8.21114 10.0651 7.78903 10.0651 7.52868 9.80474L4.86201 7.13807C4.60166 6.87772 4.60166 6.45561 4.86201 6.19526Z" fill="#18181B"/>
</svg>
