<svg width="120" height="120" viewBox="0 0 120 120" fill="none" xmlns="http://www.w3.org/2000/svg">
<path fill-rule="evenodd" clip-rule="evenodd" d="M5 60C5 57.2386 7.23858 55 10 55H40C41.6718 55 43.2329 55.8355 44.1603 57.2265L52.6759 70H67.3241L75.8398 57.2265C76.7671 55.8355 78.3282 55 80 55H110C112.761 55 115 57.2386 115 60C115 62.7614 112.761 65 110 65H82.6759L74.1602 77.7735C73.2329 79.1645 71.6718 80 70 80H50C48.3282 80 46.7671 79.1645 45.8397 77.7735L37.3241 65H10C7.23858 65 5 62.7614 5 60Z" fill="black"/>
<path fill-rule="evenodd" clip-rule="evenodd" d="M36.2 15L83.8 15C86.5906 15.0015 89.3282 15.7814 91.6998 17.2521C94.0694 18.7215 95.9824 20.8222 97.2244 23.3184C97.2255 23.3206 97.2266 23.3228 97.2276 23.325L114.471 57.7613C114.819 58.4563 115 59.2228 115 60V90C115 93.9783 113.42 97.7936 110.607 100.607C107.794 103.42 103.978 105 100 105H20C16.0218 105 12.2064 103.42 9.3934 100.607C6.58035 97.7936 5 93.9782 5 90V60C5 59.2228 5.18118 58.4563 5.52916 57.7613L22.7723 23.325C22.7736 23.3226 22.7748 23.3201 22.776 23.3177C24.0179 20.8218 25.9308 18.7213 28.3002 17.2521C30.6718 15.7814 33.4094 15.0015 36.2 15ZM36.2017 25C35.2718 25.0007 34.3605 25.2606 33.5703 25.7507C32.7797 26.2409 32.1416 26.942 31.7277 27.775L31.7209 27.7887L15 61.1819V90C15 91.3261 15.5268 92.5979 16.4645 93.5355C17.4021 94.4732 18.6739 95 20 95H100C101.326 95 102.598 94.4732 103.536 93.5355C104.473 92.5978 105 91.3261 105 90V61.1819L88.2792 27.7887L88.2723 27.775C87.8584 26.942 87.2203 26.2409 86.4297 25.7507C85.6395 25.2606 84.7282 25.0007 83.7983 25H36.2017Z" fill="black"/>
</svg>
