<svg width="16" height="16" viewBox="0 0 16 16" fill="none" xmlns="http://www.w3.org/2000/svg">
<path fill-rule="evenodd" clip-rule="evenodd" d="M3.33337 2.66634C3.15656 2.66634 2.98699 2.73658 2.86197 2.8616C2.73695 2.98663 2.66671 3.1562 2.66671 3.33301V12.6663C2.66671 12.8432 2.73695 13.0127 2.86197 13.1377C2.98699 13.2628 3.15656 13.333 3.33337 13.333H6.00004C6.36823 13.333 6.66671 13.6315 6.66671 13.9997C6.66671 14.3679 6.36823 14.6663 6.00004 14.6663H3.33337C2.80294 14.6663 2.29423 14.4556 1.91916 14.0806C1.54409 13.7055 1.33337 13.1968 1.33337 12.6663V3.33301C1.33337 2.80257 1.54409 2.29387 1.91916 1.91879C2.29423 1.54372 2.80294 1.33301 3.33337 1.33301H6.00004C6.36823 1.33301 6.66671 1.63148 6.66671 1.99967C6.66671 2.36786 6.36823 2.66634 6.00004 2.66634H3.33337Z" fill="#F3121D"/>
<path fill-rule="evenodd" clip-rule="evenodd" d="M10.1953 4.19526C10.4556 3.93491 10.8777 3.93491 11.1381 4.19526L14.4714 7.5286C14.7318 7.78894 14.7318 8.21106 14.4714 8.4714L11.1381 11.8047C10.8777 12.0651 10.4556 12.0651 10.1953 11.8047C9.93491 11.5444 9.93491 11.1223 10.1953 10.8619L13.0572 8L10.1953 5.13807C9.93491 4.87772 9.93491 4.45561 10.1953 4.19526Z" fill="#F3121D"/>
<path fill-rule="evenodd" clip-rule="evenodd" d="M5.33337 7.99967C5.33337 7.63148 5.63185 7.33301 6.00004 7.33301H14C14.3682 7.33301 14.6667 7.63148 14.6667 7.99967C14.6667 8.36786 14.3682 8.66634 14 8.66634H6.00004C5.63185 8.66634 5.33337 8.36786 5.33337 7.99967Z" fill="#F3121D"/>
</svg>
