<svg width="24" height="24" viewBox="0 0 24 24" fill="none" xmlns="http://www.w3.org/2000/svg">
<path fill-rule="evenodd" clip-rule="evenodd" d="M13.1046 4.02229C11.3294 3.87924 9.56127 4.37257 8.11654 5.414C6.67182 6.45542 5.64483 7.97697 5.21938 9.70636C4.79392 11.4357 4.99775 13.2601 5.7944 14.8529C5.91306 15.0902 5.93259 15.3648 5.84871 15.6165L4.58117 19.4191L8.3838 18.1516C8.63544 18.0677 8.9101 18.0872 9.14734 18.2059C10.7402 19.0025 12.5645 19.2064 14.2939 18.7809C16.0233 18.3554 17.5449 17.3285 18.5863 15.8837C19.6277 14.439 20.121 12.6708 19.978 10.8956C19.8349 9.12045 19.0648 7.45408 17.8055 6.19476C16.5462 4.93544 14.8798 4.16534 13.1046 4.02229ZM6.94703 3.79158C8.77701 2.47244 11.0167 1.84756 13.2653 2.02876C15.5139 2.20995 17.6246 3.1854 19.2197 4.78055C20.8149 6.37569 21.7903 8.48642 21.9715 10.735C22.1527 12.9836 21.5278 15.2233 20.2087 17.0533C18.8896 18.8832 16.9623 20.1841 14.7717 20.723C12.7186 21.2281 10.5599 21.033 8.63591 20.1757L3.31625 21.9489C2.95692 22.0687 2.56075 21.9752 2.29292 21.7074C2.02509 21.4395 1.93157 21.0434 2.05134 20.684L3.82456 15.3644C2.9673 13.4404 2.77219 11.2817 3.27729 9.22857C3.8162 7.03801 5.11704 5.11072 6.94703 3.79158Z" fill="currentColor"/>
</svg>
