<svg width="20" height="20" viewBox="0 0 20 20" fill="none" xmlns="http://www.w3.org/2000/svg">
<path fill-rule="evenodd" clip-rule="evenodd" d="M4.16663 3.33366C3.94561 3.33366 3.73365 3.42146 3.57737 3.57774C3.42109 3.73402 3.33329 3.94598 3.33329 4.16699V15.4885L5.24404 13.5777C5.40032 13.4215 5.61228 13.3337 5.83329 13.3337H15.8333C16.0543 13.3337 16.2663 13.2459 16.4225 13.0896C16.5788 12.9333 16.6666 12.7213 16.6666 12.5003V4.16699C16.6666 3.94598 16.5788 3.73402 16.4225 3.57774C16.2663 3.42146 16.0543 3.33366 15.8333 3.33366H4.16663ZM2.39886 2.39923C2.8677 1.93038 3.50358 1.66699 4.16663 1.66699H15.8333C16.4963 1.66699 17.1322 1.93038 17.6011 2.39923C18.0699 2.86807 18.3333 3.50395 18.3333 4.16699V12.5003C18.3333 13.1634 18.0699 13.7993 17.6011 14.2681C17.1322 14.7369 16.4963 15.0003 15.8333 15.0003H6.17847L3.08921 18.0896C2.85088 18.3279 2.49245 18.3992 2.18106 18.2702C1.86966 18.1412 1.66663 17.8374 1.66663 17.5003V4.16699C1.66663 3.50395 1.93002 2.86807 2.39886 2.39923Z" fill="#FAFAFA"/>
</svg>
