<svg width="20" height="20" viewBox="0 0 20 20" fill="none" xmlns="http://www.w3.org/2000/svg">
<path fill-rule="evenodd" clip-rule="evenodd" d="M7.64298 1.80932C8.2681 1.1842 9.11595 0.833008 10 0.833008C10.8841 0.833008 11.7319 1.1842 12.357 1.80932C12.9821 2.43444 13.3333 3.28229 13.3333 4.16634V9.99967C13.3333 10.8837 12.9821 11.7316 12.357 12.3567C11.7319 12.9818 10.8841 13.333 10 13.333C9.11595 13.333 8.2681 12.9818 7.64298 12.3567C7.01786 11.7316 6.66667 10.8837 6.66667 9.99967V4.16634C6.66667 3.28229 7.01786 2.43444 7.64298 1.80932ZM10 2.49967C9.55798 2.49967 9.13405 2.67527 8.82149 2.98783C8.50893 3.30039 8.33334 3.72431 8.33334 4.16634V9.99967C8.33334 10.4417 8.50893 10.8656 8.82149 11.1782C9.13405 11.4907 9.55798 11.6663 10 11.6663C10.442 11.6663 10.866 11.4907 11.1785 11.1782C11.4911 10.8656 11.6667 10.4417 11.6667 9.99967V4.16634C11.6667 3.72431 11.4911 3.30039 11.1785 2.98783C10.866 2.67527 10.442 2.49967 10 2.49967Z" fill="#FAFAFA"/>
<path fill-rule="evenodd" clip-rule="evenodd" d="M4.16666 7.5C4.6269 7.5 4.99999 7.8731 4.99999 8.33333V10C4.99999 11.3261 5.52678 12.5979 6.46446 13.5355C7.40214 14.4732 8.67391 15 9.99999 15C11.3261 15 12.5978 14.4732 13.5355 13.5355C14.4732 12.5979 15 11.3261 15 10V8.33333C15 7.8731 15.3731 7.5 15.8333 7.5C16.2936 7.5 16.6667 7.8731 16.6667 8.33333V10C16.6667 11.7681 15.9643 13.4638 14.714 14.714C13.4638 15.9643 11.7681 16.6667 9.99999 16.6667C8.23188 16.6667 6.53619 15.9643 5.28595 14.714C4.03571 13.4638 3.33333 11.7681 3.33333 10V8.33333C3.33333 7.8731 3.70642 7.5 4.16666 7.5Z" fill="#FAFAFA"/>
<path fill-rule="evenodd" clip-rule="evenodd" d="M10 15C10.4602 15 10.8333 15.3731 10.8333 15.8333V18.3333C10.8333 18.7936 10.4602 19.1667 10 19.1667C9.53977 19.1667 9.16667 18.7936 9.16667 18.3333V15.8333C9.16667 15.3731 9.53977 15 10 15Z" fill="#FAFAFA"/>
</svg>
