<svg width="18" height="18" viewBox="0 0 18 18" fill="none" xmlns="http://www.w3.org/2000/svg">
<g clip-path="url(#clip0_2449_716)">
<path fill-rule="evenodd" clip-rule="evenodd" d="M5.83624 2.43136C5.69825 2.31269 5.52182 2.24825 5.33983 2.25004C5.33737 2.25006 5.33491 2.25007 5.33245 2.25007H3.08286C2.97884 2.25021 2.87598 2.27199 2.78083 2.31402C2.68558 2.35609 2.60014 2.41753 2.52994 2.49443C2.45975 2.57133 2.40633 2.66201 2.37309 2.76068C2.34039 2.8578 2.32793 2.96057 2.33648 3.06265C2.57104 5.26132 3.31968 7.37398 4.52191 9.2298C4.5231 9.23164 4.52428 9.23348 4.52546 9.23533C5.61791 10.9545 7.07549 12.4121 8.79469 13.5046C8.79589 13.5053 8.79709 13.5061 8.79828 13.5069L8.80053 13.5083C10.6477 14.7062 12.7497 15.4546 14.9382 15.6936C15.0403 15.7021 15.1431 15.6895 15.2402 15.6566C15.3392 15.6232 15.43 15.5694 15.507 15.4988C15.5839 15.4282 15.6453 15.3423 15.6871 15.2466C15.729 15.1509 15.7504 15.0476 15.75 14.9431C15.75 14.9421 15.7499 14.9411 15.7499 14.9401V12.6901C15.7499 12.6839 15.75 12.6777 15.7502 12.6715C15.7547 12.4876 15.6916 12.3084 15.5726 12.168C15.4543 12.0284 15.289 11.9368 15.1079 11.9106C14.3331 11.8081 13.5724 11.6185 12.8402 11.3452L12.8386 11.3446C12.7043 11.2942 12.5585 11.2832 12.4182 11.3131C12.2785 11.3429 12.1503 11.412 12.0485 11.5121C12.0481 11.5126 12.0477 11.513 12.0473 11.5134L11.0978 12.4629C10.859 12.7016 10.4902 12.7514 10.1967 12.5845C8.20172 11.4501 6.54987 9.79831 5.41548 7.80329C5.24859 7.5098 5.29839 7.14098 5.53712 6.90224L6.4879 5.95146C6.58806 5.8497 6.65709 5.72146 6.68688 5.5818C6.71678 5.44156 6.70586 5.29569 6.65541 5.16147L6.65478 5.15978C6.38157 4.42762 6.19192 3.66695 6.08943 2.89224C6.06343 2.71312 5.97352 2.54942 5.83624 2.43136ZM5.32913 0.750073C5.87366 0.745696 6.40136 0.938956 6.8143 1.29408C7.22827 1.65009 7.49866 2.14449 7.57507 2.68511C7.57539 2.68741 7.57571 2.6897 7.57601 2.692C7.66355 3.35575 7.82588 4.00747 8.05989 4.63474C8.21091 5.03711 8.24353 5.47433 8.15388 5.89467C8.06416 6.31538 7.85571 6.70155 7.55324 7.00743C7.55225 7.00842 7.55127 7.00941 7.55028 7.0104L7.01246 7.54822C7.89435 8.93171 9.06832 10.1057 10.4518 10.9876L10.9896 10.4497C10.9906 10.4488 10.9916 10.4478 10.9926 10.4468C11.2985 10.1443 11.6846 9.93586 12.1054 9.84614C12.5258 9.75648 12.963 9.78912 13.3654 9.94019C13.9927 10.1742 14.6443 10.3365 15.308 10.424C15.3103 10.4243 15.3125 10.4246 15.3147 10.4249C15.8612 10.502 16.3603 10.7773 16.7171 11.1984C17.0716 11.6168 17.2611 12.1503 17.25 12.6984V14.9391C17.2509 15.2517 17.1868 15.5611 17.0615 15.8475C16.936 16.1346 16.7519 16.3923 16.521 16.6041C16.2902 16.8159 16.0176 16.9772 15.7208 17.0776C15.424 17.1779 15.1095 17.2152 14.7974 17.187C14.7929 17.1866 14.7884 17.1862 14.7839 17.1857C12.3606 16.9224 10.0327 16.0946 7.98727 14.7687C6.08441 13.559 4.47094 11.9455 3.2612 10.0426C1.93068 7.98778 1.10265 5.64857 0.844143 3.21427C0.84373 3.21038 0.843346 3.20648 0.842994 3.20257C0.81488 2.89147 0.851853 2.57793 0.951556 2.2819C1.05126 1.98587 1.21151 1.71385 1.42211 1.48315C1.6327 1.25245 1.88902 1.06812 2.17476 0.94191C2.46049 0.815699 2.76938 0.750367 3.08174 0.750073L5.32913 0.750073Z" fill="#3F3F46"/>
</g>
<defs>
<clipPath id="clip0_2449_716">
<rect width="18" height="18" fill="white"/>
</clipPath>
</defs>
</svg>
