<svg width="16" height="16" viewBox="0 0 16 16" fill="none" xmlns="http://www.w3.org/2000/svg">
<g clip-path="url(#clip0_2334_5452)">
<path fill-rule="evenodd" clip-rule="evenodd" d="M13.2398 2.07827C13.0799 2.01601 12.9085 1.98746 12.7367 1.99455C12.5648 2.00164 12.3965 2.04421 12.2425 2.11937C12.0884 2.19452 11.9522 2.30055 11.8423 2.43042C11.8304 2.44452 11.8179 2.45812 11.8048 2.47118L2.93002 11.346L2.28358 13.7163L4.65388 13.0698L13.5287 4.19504C13.544 4.17978 13.5599 4.16527 13.5766 4.15156C13.7084 4.04313 13.8157 3.90889 13.892 3.75757C13.9682 3.60627 14.0117 3.44107 14.02 3.2725C14.0282 3.10392 14.001 2.93539 13.94 2.7776C13.879 2.61979 13.7854 2.476 13.6649 2.35553C13.5444 2.23504 13.3997 2.14052 13.2398 2.07827ZM12.6817 0.66235C13.0372 0.64768 13.3921 0.706711 13.7236 0.835796C14.0551 0.964885 14.3563 1.16127 14.6077 1.41272C14.8592 1.66417 15.0554 1.96517 15.1836 2.29667C15.3118 2.62818 15.3691 2.98274 15.3517 3.33769C15.3343 3.69264 15.2427 4.03993 15.0828 4.3574C14.9281 4.66449 14.7129 4.93704 14.4503 5.15902L5.4715 14.1378C5.38946 14.2199 5.28744 14.2791 5.17551 14.3096L1.50884 15.3096C1.27803 15.3726 1.03119 15.307 0.862026 15.1378C0.692859 14.9687 0.627307 14.7218 0.690254 14.491L1.69025 10.8244C1.72078 10.7124 1.77999 10.6104 1.86203 10.5284L10.8439 1.54649C11.0701 1.28543 11.347 1.07274 11.6577 0.921087C11.9775 0.765081 12.3262 0.67702 12.6817 0.66235Z" fill="#FAFAFA"/>
<path fill-rule="evenodd" clip-rule="evenodd" d="M9.52851 2.86225C9.78886 2.6019 10.211 2.6019 10.4713 2.86225L13.138 5.52892C13.3983 5.78927 13.3983 6.21138 13.138 6.47173C12.8776 6.73208 12.4555 6.73208 12.1952 6.47173L9.52851 3.80506C9.26816 3.54471 9.26816 3.1226 9.52851 2.86225Z" fill="#FAFAFA"/>
</g>
<defs>
<clipPath id="clip0_2334_5452">
<rect width="16" height="16" fill="white"/>
</clipPath>
</defs>
</svg>
