<svg width="16" height="16" viewBox="0 0 16 16" fill="none" xmlns="http://www.w3.org/2000/svg">
<path fill-rule="evenodd" clip-rule="evenodd" d="M12 2.00033C11.2637 2.00033 10.6667 2.59728 10.6667 3.33366C10.6667 4.07004 11.2637 4.66699 12 4.66699C12.7364 4.66699 13.3334 4.07004 13.3334 3.33366C13.3334 2.59728 12.7364 2.00033 12 2.00033ZM9.33337 3.33366C9.33337 1.8609 10.5273 0.666992 12 0.666992C13.4728 0.666992 14.6667 1.8609 14.6667 3.33366C14.6667 4.80642 13.4728 6.00033 12 6.00033C10.5273 6.00033 9.33337 4.80642 9.33337 3.33366Z" fill="#18181B"/>
<path fill-rule="evenodd" clip-rule="evenodd" d="M4.00004 6.66634C3.26366 6.66634 2.66671 7.26329 2.66671 7.99967C2.66671 8.73605 3.26366 9.33301 4.00004 9.33301C4.73642 9.33301 5.33337 8.73605 5.33337 7.99967C5.33337 7.26329 4.73642 6.66634 4.00004 6.66634ZM1.33337 7.99967C1.33337 6.52692 2.52728 5.33301 4.00004 5.33301C5.4728 5.33301 6.66671 6.52692 6.66671 7.99967C6.66671 9.47243 5.4728 10.6663 4.00004 10.6663C2.52728 10.6663 1.33337 9.47243 1.33337 7.99967Z" fill="#18181B"/>
<path fill-rule="evenodd" clip-rule="evenodd" d="M12 11.3333C11.2637 11.3333 10.6667 11.9303 10.6667 12.6667C10.6667 13.403 11.2637 14 12 14C12.7364 14 13.3334 13.403 13.3334 12.6667C13.3334 11.9303 12.7364 11.3333 12 11.3333ZM9.33337 12.6667C9.33337 11.1939 10.5273 10 12 10C13.4728 10 14.6667 11.1939 14.6667 12.6667C14.6667 14.1394 13.4728 15.3333 12 15.3333C10.5273 15.3333 9.33337 14.1394 9.33337 12.6667Z" fill="#18181B"/>
<path fill-rule="evenodd" clip-rule="evenodd" d="M5.15071 8.67097C5.33608 8.35285 5.74424 8.24524 6.06236 8.43061L10.6157 11.0839C10.9338 11.2693 11.0414 11.6775 10.8561 11.9956C10.6707 12.3137 10.2625 12.4213 9.94439 12.236L5.39106 9.58262C5.07294 9.39725 4.96533 8.98909 5.15071 8.67097Z" fill="#18181B"/>
<path fill-rule="evenodd" clip-rule="evenodd" d="M10.8492 4.00361C11.0347 4.32161 10.9274 4.72984 10.6094 4.91542L6.06273 7.56875C5.74473 7.75433 5.3365 7.64698 5.15092 7.32898C4.96534 7.01098 5.07269 6.60275 5.39069 6.41717L9.93736 3.76384C10.2554 3.57826 10.6636 3.68561 10.8492 4.00361Z" fill="#18181B"/>
</svg>
