<svg width="20" height="20" viewBox="0 0 20 20" fill="none" xmlns="http://www.w3.org/2000/svg">
<path fill-rule="evenodd" clip-rule="evenodd" d="M9.99994 0.833008C10.3171 0.833008 10.6068 1.01307 10.7472 1.29749L13.1285 6.12173L18.4538 6.9001C18.7676 6.94597 19.0282 7.16597 19.126 7.46765C19.2238 7.76932 19.1419 8.10036 18.9147 8.32164L15.062 12.0741L15.9713 17.3755C16.0249 17.6881 15.8964 18.0041 15.6397 18.1906C15.3831 18.377 15.0428 18.4016 14.7621 18.2539L9.99994 15.7495L5.23782 18.2539C4.95706 18.4016 4.61681 18.377 4.36016 18.1906C4.10352 18.0041 3.97498 17.6881 4.0286 17.3755L4.93784 12.0741L1.08517 8.32164C0.857984 8.10036 0.77609 7.76932 0.873905 7.46765C0.971719 7.16597 1.23229 6.94597 1.54609 6.9001L6.87139 6.12173L9.25269 1.29749C9.39308 1.01307 9.68276 0.833008 9.99994 0.833008Z" fill="#FDDA2A"/>
</svg>
