<svg width="20" height="20" viewBox="0 0 20 20" fill="none" xmlns="http://www.w3.org/2000/svg">
<g clip-path="url(#clip0_2449_721)">
<path fill-rule="evenodd" clip-rule="evenodd" d="M10 2.49967C5.85787 2.49967 2.50001 5.85754 2.50001 9.99967C2.50001 14.1418 5.85787 17.4997 10 17.4997C14.1421 17.4997 17.5 14.1418 17.5 9.99967C17.5 5.85754 14.1421 2.49967 10 2.49967ZM0.833344 9.99967C0.833344 4.93706 4.9374 0.833008 10 0.833008C15.0626 0.833008 19.1667 4.93706 19.1667 9.99967C19.1667 15.0623 15.0626 19.1663 10 19.1663C4.9374 19.1663 0.833344 15.0623 0.833344 9.99967Z" fill="#3F3F46"/>
<path fill-rule="evenodd" clip-rule="evenodd" d="M7.33071 11.1629C7.0539 10.7977 6.53369 10.7245 6.16666 10.9997C5.79848 11.2759 5.72386 11.7982 6 12.1664L6.66666 11.6664C6 12.1664 6.0002 12.1667 6.0004 12.1669L6.00084 12.1675L6.0018 12.1688L6.00408 12.1718L6.01009 12.1796L6.02784 12.2024C6.04221 12.2205 6.06167 12.2446 6.08613 12.2737C6.135 12.332 6.20416 12.4108 6.29287 12.5034C6.4696 12.6878 6.72786 12.9307 7.06194 13.1737C7.72689 13.6573 8.72872 14.1664 10 14.1664C11.2713 14.1664 12.2731 13.6573 12.9381 13.1737C13.2721 12.9307 13.5304 12.6878 13.7071 12.5034C13.7958 12.4108 13.865 12.332 13.9139 12.2737C13.9383 12.2446 13.9578 12.2205 13.9722 12.2024L13.9899 12.1796L13.9959 12.1718L13.9982 12.1688L13.9992 12.1675L13.9996 12.1669C13.9998 12.1667 14 12.1664 13.3333 11.6664L14 12.1664C14.2761 11.7982 14.2015 11.2759 13.8333 10.9997C13.4663 10.7245 12.9461 10.7977 12.6693 11.1629L12.6654 11.1679C12.6605 11.1741 12.651 11.1859 12.6372 11.2023C12.6096 11.2352 12.5648 11.2865 12.5038 11.3502C12.3811 11.4783 12.1966 11.6521 11.9578 11.8258C11.4769 12.1755 10.8121 12.4997 10 12.4997C9.18794 12.4997 8.52311 12.1755 8.04222 11.8258C7.80339 11.6521 7.61894 11.4783 7.49619 11.3502C7.43516 11.2865 7.39038 11.2352 7.36276 11.2023C7.34897 11.1859 7.33954 11.1741 7.33458 11.1679L7.33071 11.1629Z" fill="#3F3F46"/>
<path fill-rule="evenodd" clip-rule="evenodd" d="M6.66666 7.50033C6.66666 7.04009 7.03975 6.66699 7.49999 6.66699H7.50832C7.96856 6.66699 8.34166 7.04009 8.34166 7.50033C8.34166 7.96056 7.96856 8.33366 7.50832 8.33366H7.49999C7.03975 8.33366 6.66666 7.96056 6.66666 7.50033Z" fill="#3F3F46"/>
<path fill-rule="evenodd" clip-rule="evenodd" d="M11.6667 7.50033C11.6667 7.04009 12.0398 6.66699 12.5 6.66699H12.5083C12.9686 6.66699 13.3417 7.04009 13.3417 7.50033C13.3417 7.96056 12.9686 8.33366 12.5083 8.33366H12.5C12.0398 8.33366 11.6667 7.96056 11.6667 7.50033Z" fill="#3F3F46"/>
</g>
<defs>
<clipPath id="clip0_2449_721">
<rect width="20" height="20" fill="white"/>
</clipPath>
</defs>
</svg>
