<svg width="16" height="16" viewBox="0 0 16 16" fill="none" xmlns="http://www.w3.org/2000/svg">
<g clip-path="url(#clip0_2459_736)">
<path d="M8.00003 1.60038L4.80003 6.80038V12.0003C4.13336 12.8003 3.76003 14.4803 7.60003 14.8003C11.44 15.1203 12.9334 13.867 13.2 13.2003C14.8 8.08033 14.4 6.80033 14 6.80033C9.52003 6.80028 9.20003 6.26701 9.60003 6.00038C10.56 1.84038 8.93336 1.33372 8.00003 1.60038Z" fill="#FF385C"/>
<path d="M8.00003 1.60038L4.80003 6.80038V12.0003C4.13336 12.8003 3.76003 14.4803 7.60003 14.8003C11.44 15.1203 12.9334 13.867 13.2 13.2003C14.8 8.08033 14.4 6.80033 14 6.80033C9.52003 6.80028 9.20003 6.26701 9.60003 6.00038C10.56 1.84038 8.93336 1.33372 8.00003 1.60038Z" fill="url(#paint0_linear_2459_736)"/>
<path fill-rule="evenodd" clip-rule="evenodd" d="M4.66663 6.00033C5.03482 6.00033 5.33329 6.2988 5.33329 6.66699V14.667C5.33329 15.0352 5.03482 15.3337 4.66663 15.3337C4.29844 15.3337 3.99996 15.0352 3.99996 14.667V6.66699C3.99996 6.2988 4.29844 6.00033 4.66663 6.00033Z" fill="#FF385C"/>
<path fill-rule="evenodd" clip-rule="evenodd" d="M4.66663 6.00033C5.03482 6.00033 5.33329 6.2988 5.33329 6.66699V14.667C5.33329 15.0352 5.03482 15.3337 4.66663 15.3337C4.29844 15.3337 3.99996 15.0352 3.99996 14.667V6.66699C3.99996 6.2988 4.29844 6.00033 4.66663 6.00033Z" fill="url(#paint1_linear_2459_736)"/>
<path fill-rule="evenodd" clip-rule="evenodd" d="M7.40385 1.03517C7.51818 0.806844 7.75288 0.663882 8.00821 0.667044C8.42304 0.67218 8.83134 0.770992 9.20262 0.956096C9.57389 1.1412 9.89854 1.40781 10.1523 1.73601C10.4061 2.06421 10.5824 2.4455 10.6681 2.85142C10.7537 3.25689 10.7466 3.67646 10.6475 4.07883L10.6472 4.08012L10.1811 6.00033H13.22C13.5304 6.00033 13.8367 6.07262 14.1144 6.21147C14.3921 6.35033 14.6337 6.55193 14.82 6.80033C15.0063 7.04872 15.1322 7.33707 15.1877 7.64256C15.2432 7.94795 15.2269 8.26208 15.14 8.56008V8.56008L13.5867 13.8934C13.4655 14.3088 13.2128 14.674 12.8666 14.9337C12.5204 15.1933 12.0994 15.3337 11.6666 15.3337H2.66663C2.13619 15.3337 1.62748 15.1229 1.25241 14.7479C0.87734 14.3728 0.666626 13.8641 0.666626 13.3337V8.00033C0.666626 7.46989 0.87734 6.96119 1.25241 6.58611C1.62748 6.21104 2.13619 6.00033 2.66663 6.00033H4.50627C4.6303 6.00026 4.75185 5.9656 4.85726 5.90023C4.96266 5.83487 5.04775 5.7414 5.10294 5.63033L5.10384 5.6285L7.40385 1.03517ZM8.38185 2.05996L6.29698 6.22366L6.29649 6.22463C6.1309 6.55742 5.87585 6.83748 5.55993 7.03338C5.24372 7.22947 4.87906 7.33346 4.50698 7.33366H2.66663C2.48982 7.33366 2.32025 7.4039 2.19522 7.52892C2.0702 7.65395 1.99996 7.82351 1.99996 8.00033V13.3337C1.99996 13.5105 2.0702 13.68 2.19522 13.8051C2.32025 13.9301 2.48982 14.0003 2.66663 14.0003H11.6666C11.8109 14.0003 11.9512 13.9535 12.0666 13.867C12.182 13.7805 12.2661 13.6589 12.3066 13.5206V13.5206L13.8599 8.18724C13.8889 8.08788 13.8944 7.9829 13.8759 7.88107C13.8574 7.77924 13.8154 7.68312 13.7533 7.60033C13.6912 7.51753 13.6107 7.45033 13.5181 7.40404C13.4255 7.35776 13.3235 7.33366 13.22 7.33366H9.33329C9.12881 7.33366 8.93563 7.23981 8.80923 7.07907C8.68284 6.91832 8.6372 6.70846 8.68544 6.50975L9.3521 3.76308L9.35273 3.76053C9.40401 3.55281 9.40769 3.33618 9.3635 3.12684C9.3193 2.9175 9.22837 2.72084 9.09749 2.55158C8.96662 2.38232 8.79918 2.24482 8.6077 2.14935C8.53489 2.11305 8.45932 2.08318 8.38185 2.05996Z" fill="#FF385C"/>
<path fill-rule="evenodd" clip-rule="evenodd" d="M7.40385 1.03517C7.51818 0.806844 7.75288 0.663882 8.00821 0.667044C8.42304 0.67218 8.83134 0.770992 9.20262 0.956096C9.57389 1.1412 9.89854 1.40781 10.1523 1.73601C10.4061 2.06421 10.5824 2.4455 10.6681 2.85142C10.7537 3.25689 10.7466 3.67646 10.6475 4.07883L10.6472 4.08012L10.1811 6.00033H13.22C13.5304 6.00033 13.8367 6.07262 14.1144 6.21147C14.3921 6.35033 14.6337 6.55193 14.82 6.80033C15.0063 7.04872 15.1322 7.33707 15.1877 7.64256C15.2432 7.94795 15.2269 8.26208 15.14 8.56008V8.56008L13.5867 13.8934C13.4655 14.3088 13.2128 14.674 12.8666 14.9337C12.5204 15.1933 12.0994 15.3337 11.6666 15.3337H2.66663C2.13619 15.3337 1.62748 15.1229 1.25241 14.7479C0.87734 14.3728 0.666626 13.8641 0.666626 13.3337V8.00033C0.666626 7.46989 0.87734 6.96119 1.25241 6.58611C1.62748 6.21104 2.13619 6.00033 2.66663 6.00033H4.50627C4.6303 6.00026 4.75185 5.9656 4.85726 5.90023C4.96266 5.83487 5.04775 5.7414 5.10294 5.63033L5.10384 5.6285L7.40385 1.03517ZM8.38185 2.05996L6.29698 6.22366L6.29649 6.22463C6.1309 6.55742 5.87585 6.83748 5.55993 7.03338C5.24372 7.22947 4.87906 7.33346 4.50698 7.33366H2.66663C2.48982 7.33366 2.32025 7.4039 2.19522 7.52892C2.0702 7.65395 1.99996 7.82351 1.99996 8.00033V13.3337C1.99996 13.5105 2.0702 13.68 2.19522 13.8051C2.32025 13.9301 2.48982 14.0003 2.66663 14.0003H11.6666C11.8109 14.0003 11.9512 13.9535 12.0666 13.867C12.182 13.7805 12.2661 13.6589 12.3066 13.5206V13.5206L13.8599 8.18724C13.8889 8.08788 13.8944 7.9829 13.8759 7.88107C13.8574 7.77924 13.8154 7.68312 13.7533 7.60033C13.6912 7.51753 13.6107 7.45033 13.5181 7.40404C13.4255 7.35776 13.3235 7.33366 13.22 7.33366H9.33329C9.12881 7.33366 8.93563 7.23981 8.80923 7.07907C8.68284 6.91832 8.6372 6.70846 8.68544 6.50975L9.3521 3.76308L9.35273 3.76053C9.40401 3.55281 9.40769 3.33618 9.3635 3.12684C9.3193 2.9175 9.22837 2.72084 9.09749 2.55158C8.96662 2.38232 8.79918 2.24482 8.6077 2.14935C8.53489 2.11305 8.45932 2.08318 8.38185 2.05996Z" fill="url(#paint2_linear_2459_736)"/>
</g>
<defs>
<linearGradient id="paint0_linear_2459_736" x1="0.666626" y1="8.00033" x2="15.22" y2="8.00033" gradientUnits="userSpaceOnUse">
<stop stop-color="#E61E4D" stop-opacity="0"/>
<stop offset="0.354167" stop-color="#E31C5F" stop-opacity="0.5"/>
<stop offset="1" stop-color="#D70466"/>
</linearGradient>
<linearGradient id="paint1_linear_2459_736" x1="0.666626" y1="8.00033" x2="15.22" y2="8.00033" gradientUnits="userSpaceOnUse">
<stop stop-color="#E61E4D" stop-opacity="0"/>
<stop offset="0.354167" stop-color="#E31C5F" stop-opacity="0.5"/>
<stop offset="1" stop-color="#D70466"/>
</linearGradient>
<linearGradient id="paint2_linear_2459_736" x1="0.666626" y1="8.00033" x2="15.22" y2="8.00033" gradientUnits="userSpaceOnUse">
<stop stop-color="#E61E4D" stop-opacity="0"/>
<stop offset="0.354167" stop-color="#E31C5F" stop-opacity="0.5"/>
<stop offset="1" stop-color="#D70466"/>
</linearGradient>
<clipPath id="clip0_2459_736">
<rect width="16" height="16" fill="white"/>
</clipPath>
</defs>
</svg>
