<svg width="16" height="16" viewBox="0 0 16 16" fill="none" xmlns="http://www.w3.org/2000/svg">
<g clip-path="url(#clip0_2451_739)">
<path fill-rule="evenodd" clip-rule="evenodd" d="M11.3333 0.666992C11.7015 0.666992 12 0.965469 12 1.33366V9.33366C12 9.70185 11.7015 10.0003 11.3333 10.0003C10.9651 10.0003 10.6666 9.70185 10.6666 9.33366V1.33366C10.6666 0.965469 10.9651 0.666992 11.3333 0.666992Z" fill="#F3121D"/>
<path fill-rule="evenodd" clip-rule="evenodd" d="M4.33336 2.00033C4.18912 2.00033 4.04876 2.04711 3.93336 2.13366C3.81803 2.22016 3.73385 2.3417 3.69343 2.48008L2.1401 7.81341C2.11112 7.91277 2.1056 8.01776 2.12412 8.11958C2.14263 8.22141 2.1846 8.31753 2.2467 8.40033C2.30879 8.48312 2.38932 8.55033 2.48189 8.59661C2.57446 8.6429 2.67653 8.66699 2.78003 8.66699H6.6667C6.87118 8.66699 7.06436 8.76084 7.19075 8.92158C7.31715 9.08233 7.36278 9.29219 7.31455 9.49091L6.64789 12.2376L6.64726 12.2401C6.59598 12.4478 6.5923 12.6645 6.63649 12.8738C6.68069 13.0832 6.77162 13.2798 6.9025 13.4491C7.03337 13.6183 7.2008 13.7558 7.39228 13.8513C7.46509 13.8876 7.54067 13.9175 7.61814 13.9407L9.70301 9.77699C9.7032 9.77662 9.70338 9.77624 9.70357 9.77586C9.86916 9.44315 10.1242 9.16314 10.4401 8.96727C10.7563 8.77118 11.1209 8.66719 11.493 8.66699H13.3334C13.5102 8.66699 13.6797 8.59675 13.8048 8.47173C13.9298 8.34671 14 8.17714 14 8.00033V2.66699C14 2.49018 13.9298 2.32061 13.8048 2.19559C13.6797 2.07056 13.5102 2.00033 13.3334 2.00033H4.33336ZM3.13336 1.06699C3.47956 0.807348 3.90062 0.666992 4.33336 0.666992H13.3334C13.8638 0.666992 14.3725 0.877706 14.7476 1.25278C15.1226 1.62785 15.3334 2.13656 15.3334 2.66699V8.00033C15.3334 8.53076 15.1226 9.03947 14.7476 9.41454C14.3725 9.78961 13.8638 10.0003 13.3334 10.0003H11.4937C11.3697 10.0004 11.2481 10.0351 11.1427 10.1004C11.0373 10.1658 10.9522 10.2593 10.897 10.3703L10.8961 10.3721L8.59614 14.9655C8.48181 15.1938 8.24711 15.3368 7.99177 15.3336C7.57695 15.3285 7.16864 15.2297 6.79737 15.0446C6.4261 14.8595 6.10145 14.5928 5.84769 14.2646C5.59393 13.9364 5.41761 13.5551 5.33192 13.1492C5.24632 12.7438 5.25334 12.3243 5.35246 11.9219C5.35257 11.9214 5.35268 11.921 5.3528 11.9205L5.81886 10.0003H2.78003C2.46954 10.0003 2.16331 9.92804 1.8856 9.78918C1.60789 9.65032 1.36632 9.44872 1.18003 9.20033C0.993735 8.95193 0.867832 8.66358 0.81229 8.3581C0.756763 8.0527 0.773083 7.73857 0.859958 7.44057C0.859982 7.44049 0.859934 7.44065 0.859958 7.44057L2.41329 2.10724C2.53446 1.69181 2.78717 1.32664 3.13336 1.06699Z" fill="#F3121D"/>
</g>
<defs>
<clipPath id="clip0_2451_739">
<rect width="16" height="16" fill="white"/>
</clipPath>
</defs>
</svg>
