<svg width="16" height="16" viewBox="0 0 16 16" fill="none" xmlns="http://www.w3.org/2000/svg">
<g clip-path="url(#clip0_2459_738)">
<path fill-rule="evenodd" clip-rule="evenodd" d="M4.66667 6C5.03486 6 5.33333 6.29848 5.33333 6.66667V14.6667C5.33333 15.0349 5.03486 15.3333 4.66667 15.3333C4.29848 15.3333 4 15.0349 4 14.6667V6.66667C4 6.29848 4.29848 6 4.66667 6Z" fill="#71717A"/>
<path fill-rule="evenodd" clip-rule="evenodd" d="M7.40385 1.03517C7.51818 0.806844 7.75288 0.663882 8.00821 0.667044C8.42304 0.67218 8.83135 0.770992 9.20262 0.956096C9.57389 1.1412 9.89854 1.40781 10.1523 1.73601C10.4061 2.06421 10.5824 2.4455 10.6681 2.85142C10.7537 3.25689 10.7466 3.67646 10.6475 4.07883C10.6474 4.07926 10.6473 4.07969 10.6472 4.08012L10.1811 6.00033H13.22C13.5304 6.00033 13.8367 6.07262 14.1144 6.21147C14.3921 6.35033 14.6337 6.55193 14.82 6.80033C15.0063 7.04872 15.1322 7.33707 15.1877 7.64255C15.2432 7.94795 15.2269 8.26208 15.14 8.56008C15.14 8.56016 15.1401 8.56 15.14 8.56008L13.5867 13.8934C13.4655 14.3088 13.2128 14.674 12.8666 14.9337C12.5204 15.1933 12.0994 15.3337 11.6666 15.3337H2.66663C2.13619 15.3337 1.62748 15.1229 1.25241 14.7479C0.87734 14.3728 0.666626 13.8641 0.666626 13.3337V8.00033C0.666626 7.46989 0.87734 6.96119 1.25241 6.58611C1.62748 6.21104 2.13619 6.00033 2.66663 6.00033H4.50627C4.6303 6.00026 4.75185 5.9656 4.85726 5.90023C4.96266 5.83487 5.04775 5.7414 5.10294 5.63033L5.10385 5.6285L7.40385 1.03517ZM8.38185 2.05996L6.29698 6.22366C6.29682 6.22398 6.29666 6.22431 6.29649 6.22463C6.1309 6.55742 5.87585 6.83748 5.55994 7.03338C5.24372 7.22947 4.87906 7.33346 4.50698 7.33366H2.66663C2.48982 7.33366 2.32025 7.4039 2.19522 7.52892C2.0702 7.65395 1.99996 7.82351 1.99996 8.00033V13.3337C1.99996 13.5105 2.0702 13.68 2.19522 13.8051C2.32025 13.9301 2.48982 14.0003 2.66663 14.0003H11.6666C11.8109 14.0003 11.9512 13.9535 12.0666 13.867C12.182 13.7805 12.2661 13.6589 12.3066 13.5206C12.3066 13.5205 12.3065 13.5207 12.3066 13.5206L13.8599 8.18724C13.8889 8.08788 13.8944 7.9829 13.8759 7.88107C13.8574 7.77924 13.8154 7.68312 13.7533 7.60033C13.6912 7.51753 13.6107 7.45033 13.5181 7.40404C13.4255 7.35776 13.3235 7.33366 13.22 7.33366H9.33329C9.12881 7.33366 8.93563 7.23981 8.80923 7.07907C8.68284 6.91832 8.6372 6.70846 8.68544 6.50975L9.3521 3.76308L9.35273 3.76053C9.40401 3.55281 9.40769 3.33618 9.3635 3.12684C9.3193 2.91749 9.22837 2.72084 9.09749 2.55158C8.96662 2.38232 8.79919 2.24482 8.60771 2.14935C8.53489 2.11305 8.45932 2.08318 8.38185 2.05996Z" fill="#71717A"/>
</g>
<defs>
<clipPath id="clip0_2459_738">
<rect width="16" height="16" fill="white"/>
</clipPath>
</defs>
</svg>
