<svg width="48" height="48" viewBox="0 0 48 48" fill="none" xmlns="http://www.w3.org/2000/svg">
<path fill-rule="evenodd" clip-rule="evenodd" d="M14.1005 30.1005C16.726 27.475 20.287 26 24 26C27.713 26 31.274 27.475 33.8995 30.1005C36.525 32.726 38 36.287 38 40C38 41.1046 37.1046 42 36 42C34.8954 42 34 41.1046 34 40C34 37.3478 32.9464 34.8043 31.0711 32.9289C29.1957 31.0536 26.6522 30 24 30C21.3478 30 18.8043 31.0536 16.9289 32.9289C15.0536 34.8043 14 37.3478 14 40C14 41.1046 13.1046 42 12 42C10.8954 42 10 41.1046 10 40C10 36.287 11.475 32.726 14.1005 30.1005Z" fill="#FF385C"/>
<path fill-rule="evenodd" clip-rule="evenodd" d="M14.1005 30.1005C16.726 27.475 20.287 26 24 26C27.713 26 31.274 27.475 33.8995 30.1005C36.525 32.726 38 36.287 38 40C38 41.1046 37.1046 42 36 42C34.8954 42 34 41.1046 34 40C34 37.3478 32.9464 34.8043 31.0711 32.9289C29.1957 31.0536 26.6522 30 24 30C21.3478 30 18.8043 31.0536 16.9289 32.9289C15.0536 34.8043 14 37.3478 14 40C14 41.1046 13.1046 42 12 42C10.8954 42 10 41.1046 10 40C10 36.287 11.475 32.726 14.1005 30.1005Z" fill="url(#paint0_linear_2450_735)"/>
<path fill-rule="evenodd" clip-rule="evenodd" d="M24 14C20.6863 14 18 16.6863 18 20C18 23.3137 20.6863 26 24 26C27.3137 26 30 23.3137 30 20C30 16.6863 27.3137 14 24 14ZM14 20C14 14.4772 18.4772 10 24 10C29.5228 10 34 14.4772 34 20C34 25.5228 29.5228 30 24 30C18.4772 30 14 25.5228 14 20Z" fill="#FF385C"/>
<path fill-rule="evenodd" clip-rule="evenodd" d="M24 14C20.6863 14 18 16.6863 18 20C18 23.3137 20.6863 26 24 26C27.3137 26 30 23.3137 30 20C30 16.6863 27.3137 14 24 14ZM14 20C14 14.4772 18.4772 10 24 10C29.5228 10 34 14.4772 34 20C34 25.5228 29.5228 30 24 30C18.4772 30 14 25.5228 14 20Z" fill="url(#paint1_linear_2450_735)"/>
<path fill-rule="evenodd" clip-rule="evenodd" d="M24 6C14.0589 6 6 14.0589 6 24C6 33.9411 14.0589 42 24 42C33.9411 42 42 33.9411 42 24C42 14.0589 33.9411 6 24 6ZM2 24C2 11.8497 11.8497 2 24 2C36.1503 2 46 11.8497 46 24C46 36.1503 36.1503 46 24 46C11.8497 46 2 36.1503 2 24Z" fill="#FF385C"/>
<path fill-rule="evenodd" clip-rule="evenodd" d="M24 6C14.0589 6 6 14.0589 6 24C6 33.9411 14.0589 42 24 42C33.9411 42 42 33.9411 42 24C42 14.0589 33.9411 6 24 6ZM2 24C2 11.8497 11.8497 2 24 2C36.1503 2 46 11.8497 46 24C46 36.1503 36.1503 46 24 46C11.8497 46 2 36.1503 2 24Z" fill="url(#paint2_linear_2450_735)"/>
<defs>
<linearGradient id="paint0_linear_2450_735" x1="10" y1="34" x2="38" y2="34" gradientUnits="userSpaceOnUse">
<stop stop-color="#E61E4D" stop-opacity="0"/>
<stop offset="0.354167" stop-color="#E31C5F" stop-opacity="0.5"/>
<stop offset="1" stop-color="#D70466"/>
</linearGradient>
<linearGradient id="paint1_linear_2450_735" x1="14" y1="20" x2="34" y2="20" gradientUnits="userSpaceOnUse">
<stop stop-color="#E61E4D" stop-opacity="0"/>
<stop offset="0.354167" stop-color="#E31C5F" stop-opacity="0.5"/>
<stop offset="1" stop-color="#D70466"/>
</linearGradient>
<linearGradient id="paint2_linear_2450_735" x1="2" y1="24" x2="46" y2="24" gradientUnits="userSpaceOnUse">
<stop stop-color="#E61E4D" stop-opacity="0"/>
<stop offset="0.354167" stop-color="#E31C5F" stop-opacity="0.5"/>
<stop offset="1" stop-color="#D70466"/>
</linearGradient>
</defs>
</svg>
