<svg width="20" height="20" viewBox="0 0 20 20" fill="none" xmlns="http://www.w3.org/2000/svg">
<path fill-rule="evenodd" clip-rule="evenodd" d="M18.7265 5.93161C18.9975 6.07663 19.1667 6.35901 19.1667 6.66634V13.333C19.1667 13.6403 18.9975 13.9227 18.7265 14.0677C18.4556 14.2128 18.1268 14.1969 17.8711 14.0264L12.8711 10.6931C12.6393 10.5385 12.5 10.2783 12.5 9.99968C12.5 9.72105 12.6393 9.46086 12.8711 9.3063L17.8711 5.97297C18.1268 5.80249 18.4556 5.7866 18.7265 5.93161ZM14.8356 9.99968L17.5 11.7759V8.22344L14.8356 9.99968Z" fill="#3F3F46"/>
<path fill-rule="evenodd" clip-rule="evenodd" d="M3.33334 5.83366C2.87311 5.83366 2.50001 6.20675 2.50001 6.66699V13.3337C2.50001 13.7939 2.87311 14.167 3.33334 14.167H11.6667C12.1269 14.167 12.5 13.7939 12.5 13.3337V6.66699C12.5 6.20675 12.1269 5.83366 11.6667 5.83366H3.33334ZM0.833344 6.66699C0.833344 5.28628 1.95263 4.16699 3.33334 4.16699H11.6667C13.0474 4.16699 14.1667 5.28628 14.1667 6.66699V13.3337C14.1667 14.7144 13.0474 15.8337 11.6667 15.8337H3.33334C1.95263 15.8337 0.833344 14.7144 0.833344 13.3337V6.66699Z" fill="#3F3F46"/>
</svg>
