<svg width="27" height="32" viewBox="0 0 27 32" fill="none" xmlns="http://www.w3.org/2000/svg">
<path d="M0 3.43415C0 1.53752 1.53752 0 3.43415 0H17.8507C18.7535 0 19.6199 0.355494 20.2626 0.989549L24.994 5.65772C25.6481 6.30303 26.0163 7.18351 26.0163 8.10232V28.5659C26.0163 30.4625 24.4787 32 22.5821 32H3.43415C1.53752 32 0 30.4625 0 28.5659V3.43415Z" fill="white"/>
<path d="M11.4254 7.17628C11.4942 5.92967 13.0298 5.7779 13.4309 7.17628C13.7517 8.29498 13.2357 10.0923 12.9072 11.3756C13.2357 12.1302 14.3089 13.5286 14.9484 14.1465C17.0839 13.8212 18.2872 13.8575 19.0785 14.2332C20.1517 14.7427 19.924 15.9961 18.8834 16.0977C17.9945 16.1844 16.6828 16.0976 14.8184 14.5475C14.3341 14.6126 12.891 14.8922 11.1653 15.4906C10.504 16.5529 9.58258 18.0059 8.8021 18.6343C7.52297 19.6641 6.55821 19.328 6.28721 18.7643C5.91865 17.767 7.41457 16.8348 10.1354 15.4906C10.5654 14.6378 11.5577 12.5053 12.0866 10.7969C11.8554 10.244 11.3387 8.74808 11.4254 7.17628ZM9.76688 16.076C6.05957 17.6758 6.23302 18.7535 6.92679 18.8619C7.62056 18.9703 8.47692 18.0922 9.76688 16.076ZM18.8401 15.1221C18.7967 14.1031 17.2357 14.1031 15.1978 14.45C17.5718 16.141 18.8401 15.8375 18.8401 15.1221ZM12.7262 11.7833C12.1539 13.4743 11.5989 14.6632 11.3929 15.0462C12.9365 14.5692 14.1607 14.3127 14.5799 14.244C13.7214 13.2727 12.9864 12.1988 12.7262 11.7833ZM12.2818 10.2548C13.1815 7.38223 12.878 6.47167 12.1951 6.56922C11.4796 6.68846 11.5772 8.72638 12.2818 10.2548Z" fill="#FF2116"/>
<path d="M3.43457 0.46875H17.8506C18.6303 0.46875 19.3786 0.775649 19.9336 1.32324L24.665 5.99121C25.2299 6.54852 25.5479 7.30904 25.5479 8.10254V28.5654C25.5479 30.2034 24.22 31.5312 22.582 31.5312H3.43457C1.79657 31.5312 0.46875 30.2034 0.46875 28.5654V3.43457C0.46875 1.79657 1.79657 0.46875 3.43457 0.46875Z" stroke="#FF2116" stroke-width="0.936585"/>
<path d="M9.08453 25.2677H7.84596V24.5543H9.08453C9.2871 24.5543 9.45114 24.5212 9.57665 24.4552C9.70436 24.3869 9.79794 24.2944 9.85739 24.1777C9.91684 24.0588 9.94657 23.9234 9.94657 23.7715C9.94657 23.624 9.91684 23.4863 9.85739 23.3586C9.79794 23.2309 9.70436 23.1274 9.57665 23.0482C9.45114 22.9689 9.2871 22.9293 9.08453 22.9293H8.14322V27.0215H7.23493V22.2125H9.08453C9.45885 22.2125 9.77812 22.2797 10.0424 22.414C10.3088 22.5461 10.5114 22.73 10.6501 22.9656C10.791 23.199 10.8615 23.4654 10.8615 23.7649C10.8615 24.0753 10.791 24.3429 10.6501 24.5675C10.5114 24.7921 10.3088 24.9649 10.0424 25.086C9.77812 25.2071 9.45885 25.2677 9.08453 25.2677ZM13.0116 27.0215H11.9745L11.9811 26.3081H13.0116C13.2913 26.3081 13.5258 26.2464 13.7151 26.1231C13.9045 25.9976 14.0476 25.8181 14.1445 25.5847C14.2414 25.3491 14.2898 25.0673 14.2898 24.7392V24.4915C14.2898 24.2383 14.2623 24.0148 14.2072 23.821C14.1522 23.6273 14.0707 23.4643 13.9628 23.3322C13.8571 23.2001 13.7261 23.0999 13.5698 23.0316C13.4135 22.9634 13.234 22.9293 13.0314 22.9293H11.9547V22.2125H13.0314C13.3529 22.2125 13.6458 22.2665 13.91 22.3744C14.1764 22.4823 14.4065 22.6375 14.6003 22.8401C14.7962 23.0405 14.946 23.2805 15.0495 23.5601C15.1552 23.8397 15.208 24.1524 15.208 24.4981V24.7392C15.208 25.0827 15.1552 25.3954 15.0495 25.6772C14.946 25.9569 14.7962 26.1969 14.6003 26.3972C14.4065 26.5976 14.1753 26.7518 13.9067 26.8596C13.638 26.9675 13.3397 27.0215 13.0116 27.0215ZM12.4832 22.2125V27.0215H11.5749V22.2125H12.4832ZM16.8892 22.2125V27.0215H15.9809V22.2125H16.8892ZM18.8279 24.29V25.0067H16.6513V24.29H18.8279ZM19.0822 22.2125V22.9293H16.6513V22.2125H19.0822Z" fill="black"/>
</svg>
